<mxfile host="app.diagrams.net" agent="Mozilla/5.0 (Windows NT 10.0; Win64; x64) AppleWebKit/537.36 (KHTML, like Gecko) Chrome/136.0.0.0 Safari/537.36 Edg/136.0.0.0" version="27.1.0">
  <diagram name="第 1 页" id="O1zmHwH_jpoI9-fM2c9w">
    <mxGraphModel dx="774" dy="633" grid="1" gridSize="10" guides="1" tooltips="1" connect="1" arrows="1" fold="1" page="1" pageScale="1" pageWidth="1169" pageHeight="827" math="0" shadow="0">
      <root>
        <mxCell id="0" />
        <mxCell id="1" parent="0" />
        <mxCell id="6JZeye2eDNHA_Utgmzkd-8" value="" style="edgeStyle=orthogonalEdgeStyle;rounded=0;orthogonalLoop=1;jettySize=auto;html=1;" parent="1" source="6JZeye2eDNHA_Utgmzkd-1" edge="1">
          <mxGeometry relative="1" as="geometry">
            <mxPoint x="205" y="140.02857142857135" as="targetPoint" />
          </mxGeometry>
        </mxCell>
        <mxCell id="6JZeye2eDNHA_Utgmzkd-1" value="gomros 产品" style="shape=umlActor;verticalLabelPosition=bottom;verticalAlign=top;html=1;outlineConnect=0;" parent="1" vertex="1">
          <mxGeometry x="140" y="110" width="30" height="60" as="geometry" />
        </mxCell>
        <mxCell id="aDU9XjyVp7GIVLYesAcA-4" value="" style="edgeStyle=orthogonalEdgeStyle;rounded=0;orthogonalLoop=1;jettySize=auto;html=1;" edge="1" parent="1" source="6JZeye2eDNHA_Utgmzkd-9">
          <mxGeometry relative="1" as="geometry">
            <mxPoint x="265" y="250" as="targetPoint" />
          </mxGeometry>
        </mxCell>
        <mxCell id="6JZeye2eDNHA_Utgmzkd-9" value="定位管理器组件启动" style="rounded=1;whiteSpace=wrap;html=1;" parent="1" vertex="1">
          <mxGeometry x="205" y="110" width="120" height="60" as="geometry" />
        </mxCell>
        <mxCell id="aDU9XjyVp7GIVLYesAcA-7" value="" style="edgeStyle=orthogonalEdgeStyle;rounded=0;orthogonalLoop=1;jettySize=auto;html=1;" edge="1" parent="1" source="aDU9XjyVp7GIVLYesAcA-5" target="aDU9XjyVp7GIVLYesAcA-6">
          <mxGeometry relative="1" as="geometry" />
        </mxCell>
        <mxCell id="aDU9XjyVp7GIVLYesAcA-5" value="启动定位算法" style="rounded=0;whiteSpace=wrap;html=1;" vertex="1" parent="1">
          <mxGeometry x="205" y="209" width="120" height="40" as="geometry" />
        </mxCell>
        <mxCell id="aDU9XjyVp7GIVLYesAcA-9" value="" style="edgeStyle=orthogonalEdgeStyle;rounded=0;orthogonalLoop=1;jettySize=auto;html=1;" edge="1" parent="1" source="aDU9XjyVp7GIVLYesAcA-6" target="aDU9XjyVp7GIVLYesAcA-8">
          <mxGeometry relative="1" as="geometry" />
        </mxCell>
        <mxCell id="aDU9XjyVp7GIVLYesAcA-6" value="订阅传感器数据" style="whiteSpace=wrap;html=1;rounded=0;" vertex="1" parent="1">
          <mxGeometry x="205" y="284" width="120" height="30" as="geometry" />
        </mxCell>
        <mxCell id="aDU9XjyVp7GIVLYesAcA-11" value="" style="edgeStyle=orthogonalEdgeStyle;rounded=0;orthogonalLoop=1;jettySize=auto;html=1;" edge="1" parent="1" source="aDU9XjyVp7GIVLYesAcA-8" target="aDU9XjyVp7GIVLYesAcA-10">
          <mxGeometry relative="1" as="geometry" />
        </mxCell>
        <mxCell id="aDU9XjyVp7GIVLYesAcA-29" value="" style="edgeStyle=orthogonalEdgeStyle;rounded=0;orthogonalLoop=1;jettySize=auto;html=1;dashed=1;" edge="1" parent="1" source="aDU9XjyVp7GIVLYesAcA-8" target="aDU9XjyVp7GIVLYesAcA-28">
          <mxGeometry relative="1" as="geometry" />
        </mxCell>
        <mxCell id="aDU9XjyVp7GIVLYesAcA-8" value="订阅定位切换指令" style="whiteSpace=wrap;html=1;rounded=0;" vertex="1" parent="1">
          <mxGeometry x="205" y="346" width="120" height="31" as="geometry" />
        </mxCell>
        <mxCell id="aDU9XjyVp7GIVLYesAcA-13" value="" style="edgeStyle=orthogonalEdgeStyle;rounded=0;orthogonalLoop=1;jettySize=auto;html=1;" edge="1" parent="1" source="aDU9XjyVp7GIVLYesAcA-10" target="aDU9XjyVp7GIVLYesAcA-12">
          <mxGeometry relative="1" as="geometry" />
        </mxCell>
        <mxCell id="aDU9XjyVp7GIVLYesAcA-10" value="订阅重定位指令" style="whiteSpace=wrap;html=1;rounded=0;" vertex="1" parent="1">
          <mxGeometry x="205" y="408.5" width="120" height="24.5" as="geometry" />
        </mxCell>
        <mxCell id="aDU9XjyVp7GIVLYesAcA-12" value="启动定位结果发布线程" style="whiteSpace=wrap;html=1;rounded=0;" vertex="1" parent="1">
          <mxGeometry x="205" y="460" width="120" height="34.75" as="geometry" />
        </mxCell>
        <mxCell id="aDU9XjyVp7GIVLYesAcA-17" value="" style="endArrow=classic;html=1;rounded=0;exitX=1;exitY=0.5;exitDx=0;exitDy=0;dashed=1;" edge="1" parent="1" source="aDU9XjyVp7GIVLYesAcA-6">
          <mxGeometry width="50" height="50" relative="1" as="geometry">
            <mxPoint x="750" y="330" as="sourcePoint" />
            <mxPoint x="390" y="299" as="targetPoint" />
          </mxGeometry>
        </mxCell>
        <mxCell id="aDU9XjyVp7GIVLYesAcA-27" value="" style="edgeStyle=orthogonalEdgeStyle;rounded=0;orthogonalLoop=1;jettySize=auto;html=1;" edge="1" parent="1" source="aDU9XjyVp7GIVLYesAcA-25" target="aDU9XjyVp7GIVLYesAcA-26">
          <mxGeometry relative="1" as="geometry" />
        </mxCell>
        <mxCell id="aDU9XjyVp7GIVLYesAcA-25" value="datas" style="shape=cylinder3;whiteSpace=wrap;html=1;boundedLbl=1;backgroundOutline=1;size=15;" vertex="1" parent="1">
          <mxGeometry x="390" y="274" width="50" height="50" as="geometry" />
        </mxCell>
        <mxCell id="aDU9XjyVp7GIVLYesAcA-26" value="分发给各个定位算法" style="whiteSpace=wrap;html=1;" vertex="1" parent="1">
          <mxGeometry x="485" y="269" width="120" height="60" as="geometry" />
        </mxCell>
        <mxCell id="aDU9XjyVp7GIVLYesAcA-31" value="" style="edgeStyle=orthogonalEdgeStyle;rounded=0;orthogonalLoop=1;jettySize=auto;html=1;" edge="1" parent="1" source="aDU9XjyVp7GIVLYesAcA-28" target="aDU9XjyVp7GIVLYesAcA-30">
          <mxGeometry relative="1" as="geometry" />
        </mxCell>
        <mxCell id="aDU9XjyVp7GIVLYesAcA-28" value="&lt;div&gt;&lt;br&gt;&lt;/div&gt;&lt;div&gt;&lt;br&gt;&lt;/div&gt;指令" style="shape=actor;whiteSpace=wrap;html=1;" vertex="1" parent="1">
          <mxGeometry x="396" y="331.5" width="40" height="60" as="geometry" />
        </mxCell>
        <mxCell id="aDU9XjyVp7GIVLYesAcA-35" value="" style="edgeStyle=orthogonalEdgeStyle;rounded=0;orthogonalLoop=1;jettySize=auto;html=1;" edge="1" parent="1" source="aDU9XjyVp7GIVLYesAcA-30" target="aDU9XjyVp7GIVLYesAcA-34">
          <mxGeometry relative="1" as="geometry" />
        </mxCell>
        <mxCell id="aDU9XjyVp7GIVLYesAcA-30" value="解析指令" style="rounded=0;whiteSpace=wrap;html=1;" vertex="1" parent="1">
          <mxGeometry x="460" y="346" width="190" height="34" as="geometry" />
        </mxCell>
        <mxCell id="aDU9XjyVp7GIVLYesAcA-37" value="" style="edgeStyle=orthogonalEdgeStyle;rounded=0;orthogonalLoop=1;jettySize=auto;html=1;" edge="1" parent="1" source="aDU9XjyVp7GIVLYesAcA-34" target="aDU9XjyVp7GIVLYesAcA-36">
          <mxGeometry relative="1" as="geometry" />
        </mxCell>
        <mxCell id="aDU9XjyVp7GIVLYesAcA-34" value="!ReLocation?" style="rhombus;whiteSpace=wrap;html=1;rounded=0;" vertex="1" parent="1">
          <mxGeometry x="430" y="437" width="250" height="33" as="geometry" />
        </mxCell>
        <mxCell id="aDU9XjyVp7GIVLYesAcA-36" value="指令不执行，退出" style="whiteSpace=wrap;html=1;rounded=0;" vertex="1" parent="1">
          <mxGeometry x="720" y="423.5" width="120" height="60" as="geometry" />
        </mxCell>
      </root>
    </mxGraphModel>
  </diagram>
</mxfile>
